<?xml version="1.0" encoding="utf-8"?>
<!-- Generator: Adobe Illustrator 24.1.1, SVG Export Plug-In . SVG Version: 6.00 Build 0)  -->
<svg version="1.1" id="Layer_1" xmlns="http://www.w3.org/2000/svg" xmlns:xlink="http://www.w3.org/1999/xlink" x="0px" y="0px"
	 viewBox="0 0 1180 250" style="enable-background:new 0 0 1180 250;" xml:space="preserve">
<style type="text/css">
	.st0{fill:#3D3A3C;}
</style>
<g id="_x31_r6c2S.tif">
	<g>
		<path class="st0" d="M541.26,90.85c2.06-0.89,4.16-1.7,6.18-2.68c6.85-3.37,13.76-6.62,20.47-10.26
			c6.82-3.7,14.23-5.49,21.65-7.29c16.28-3.97,32.88-4.78,49.5-3.75c12.41,0.77,24.71,2.89,36.49,7.12c4.2,1.51,8.3,3.43,11.6,6.63
			c3.13,3.04,3.04,5.8-0.8,7.94c-3,1.68-6.39,2.66-9.63,3.89c-2.79,1.06-5.66,1.92-8.4,3.07c-1.65,0.69-2.74,1.94-1.76,4.16
			c3.48,2.39,7.82,2.45,11.8,2.5c7.45,0.11,14.94-0.4,22.37-1.15c17.88-1.79,35.26-6.39,52.83-9.88c13.3-2.64,26.69-3.29,40.18-2.54
			c2.29,0.13,4.57,0.9,6.85,0.89c6.43-0.01,12.7,0.07,19.09-2.23c8.9-3.2,18.41-4.55,27.95-3.64c4.57,0.44,9.05,1.75,13.5,3.24
			c-7.54-1.46-15.16-2.36-22.71-1.42c-7.5,0.94-15.16,1.53-22.35,4.34c4.83,1.49,9.63,2.67,14.2,4.46
			c8.89,3.48,17.83,3.35,26.86,1.03c3.02-0.78,5.92-2.01,9.04-3.09c6.89,1.08,14.1,2.1,21.26,3.37c3.68,0.65,7.32,1.63,10.8,3.55
			c-1.29,2.9-3.83,3.32-5.85,3.97c-14.24,4.59-28.81,6.66-43.72,4.44c-12.97-1.93-25.97-3.8-38.77-6.55
			c-10.76-2.31-21.34-1.89-32-0.31c-22.48,3.34-44.92,7-67.43,10.11c-8.85,1.22-17.84,1.53-26.78,1.9
			c-10.96,0.45-21.94,0.89-32.91,0.68c-11.79-0.22-23.57-1.09-34.89-4.93c-3.18-1.08-7.06-1.93-8.04-5.53
			c-0.64-2.38,2.77-4.28,5.25-5.34c5.71-2.44,11.77-3.35,17.88-3.92c4.95-0.46,9.92-0.7,14.87-1.17c1.56-0.15,4.61-0.27,4.81-1.19
			c0.46-2.08-2.48-3.27-4.19-3.87c-8.96-3.14-17.98-5.52-27.68-5.42c-13.65,0.13-27.3,0.16-40.79,2.41
			c-11.11,1.85-22.14,4.24-33.21,6.38c-1.11,0.22-2.24,0.38-3.36,0.57C541.37,91.2,541.31,91.03,541.26,90.85z"/>
		<path class="st0" d="M84.52,195.91c0.39,8.13-1.18,15.82-5.63,22.76c-6.74,10.51-16.52,15.97-28.83,17.24
			c-7.49,0.77-14.88,0.62-22.15-1.68c-10.94-3.46-17.71-10.97-20.6-21.76c-2.44-9.09-2.29-18.41,0.17-27.53
			c3.48-12.88,12.06-20.71,24.9-23.84c10-2.43,20.07-2.49,30.06,0.3c13.97,3.9,20.62,14.15,22.05,27.56
			C84.73,191.24,84.52,193.59,84.52,195.91z M18.56,196.13c-0.43,7.98,1.02,15.55,5.12,22.48c5.9,9.99,16.41,13.52,26.96,12.28
			c10.44-1.23,17.54-8.25,20.3-19.19c1.99-7.88,2.02-15.79,0.16-23.62c-0.94-3.98-2.32-8.01-4.3-11.57
			c-9.91-17.79-35.78-14.98-43.91-0.01C19.55,182.66,18.23,189.2,18.56,196.13z"/>
		<path class="st0" d="M477.38,234.87c-3.5,0-6.34-0.22-9.13,0.05c-4.09,0.4-6.81-1.2-9.26-4.44c-6.81-9.01-13.95-17.76-20.85-26.69
			c-2.55-3.3-5.68-4.93-9.8-4.63c-1.95,5.19-1.19,25.97,1.28,35.49c-4.98,0-9.91,0-15.17,0c3.17-12.3,2.13-24.59,2.11-36.8
			c-0.03-12.2,1.14-24.48-2.19-37.01c3.8-0.1,7.07-0.23,10.35-0.28c8.15-0.11,16.31-0.46,24.45-0.15c3.17,0.12,6.48,1.36,9.39,2.78
			c3.87,1.88,5.51,5.48,5.81,9.76c0.6,8.34-3.21,14.37-9.87,18.83c-2.74,1.83-5.75,3.25-8.64,4.86
			C448.56,202.09,466.62,224.05,477.38,234.87z M427.46,194.69c4.63,0.85,8.52,0.73,12.43-0.3c7.34-1.93,11.54-6.32,12.44-13.69
			c0.68-5.52-0.18-11-5.33-14.01c-5.62-3.29-11.97-3.05-18.36-1.79C426.77,174.88,427.3,184.58,427.46,194.69z"/>
		<path class="st0" d="M286.28,80.51c0-1.87,3.8-3.97,5.89-4.59c6.97-2.04,14.77-2.82,22.23-3.61c12.68-1.34,23.12-1.86,34.87-2.23
			c14.6-0.45,29.23-0.11,41.78-0.11c-6.87,1.61-15.76,3.51-24.54,5.83c-3.15,0.83-6.25,2.35-8.98,4.16
			c-4.36,2.89-4.34,6.25,0.16,8.86c3.54,2.05,7.48,3.57,11.41,4.76c6.3,1.91,12.75,3.36,19.09,5.2c-19.38,0.37-38.7-0.01-57.87-2.73
			c-12.46-1.77-24.94-3.8-36.64-8.81C290.84,86.03,286.28,83.67,286.28,80.51z"/>
		<path class="st0" d="M890.03,155.42c4.21-0.5,7.76-0.92,11.65-1.38c-0.57,27.17-3.34,53.76,0.29,80.87
			c-2.87,0.27-6.25,0.58-9.92,0.92c-0.46-1.97-0.85-3.68-1.33-5.75c-5.71,5.38-12.49,6.61-19.91,5.99
			c-7.29-0.61-12.51-4.27-15.98-10.39c-9.56-16.84-0.75-37.53,18.06-42.12c4.46-1.09,9.2-1.02,13.82-1.42
			c1.47-0.13,2.95-0.02,4.99-0.02C892.24,173.21,892.55,164.55,890.03,155.42z M891.25,205.79c-0.01,0-0.02,0-0.03,0
			c0-4.63,0.11-9.27-0.03-13.89c-0.11-3.7-1.4-5.32-4.86-5.76c-7.66-0.96-14.74,0.52-19.7,6.89c-6.49,8.33-6.94,17.63-2.89,27.13
			c2.98,6.98,9.03,10.54,16.62,10.27c7.05-0.25,10.37-3.2,10.84-10.25C891.51,215.4,891.25,210.59,891.25,205.79z"/>
		<path class="st0" d="M852.28,55.42c-0.91-1.33-1.73-2.74-2.75-3.99c-10.5-12.87-23.54-21.6-40.05-25.09
			c-13.4-2.83-26.76-2.18-40.14-0.46c-20.97,2.7-41.34,7.99-61.58,14c-8.21,2.44-16.6,4.37-25.32,5.03
			c-11.4,0.86-22.24-1.12-33.9-3.85c3.79,0,6.78-0.14,9.74,0.02c11.57,0.63,22.87-1.36,34.09-3.68c10.23-2.11,20.45-4.43,30.51-7.24
			c12.46-3.47,24.74-7.54,37.11-11.33c13.81-4.24,27.93-6.01,42.33-4.68c7.06,0.65,13.49,3.38,19.34,7.37
			c4.79,3.27,9.83,6.26,14.18,10.04c7.4,6.44,12.95,14.4,17.47,23.02C852.97,54.87,852.63,55.15,852.28,55.42z"/>
		<path class="st0" d="M645.62,40.25c-14.6,0-28.4-0.03-42.2,0.01c-7.65,0.03-15.32-0.13-22.94,0.36
			c-10.08,0.65-20.11,2.02-30.18,2.77c-11.43,0.85-22.71,2.69-33.88,5.13c-12.82,2.8-25.33,6.56-37.12,12.49
			c-3.75,1.89-7.79,3.22-13.08,3.36c11.12-6.93,22.15-11.85,33.41-16.29c14.39-5.67,29.23-9.83,44.47-12.4
			c8.16-1.38,16.42-2.46,24.67-3c10.09-0.65,20.26-1.21,30.33-0.69c13.89,0.72,27.77,2.15,41.23,6.05
			C641.91,38.51,643.38,39.31,645.62,40.25z"/>
		<path class="st0" d="M983.56,166.28c-0.24,4.76-0.59,8.7-0.61,12.64c-0.07,13.26-0.17,26.53,0.04,39.79
			c0.08,5.24,0.96,10.47,1.5,15.93c-4.71,0-9.64,0-14.76,0c2.09-7.01,2.37-14.08,2.36-21.17c-0.02-11.77-0.04-23.54-0.18-35.31
			c-0.04-3.62-0.49-7.24-0.79-11.21c-8.61-0.31-16.99-1.17-25.91,2.21c1.08-3.1,1.96-5.62,2.86-8.21c21.3,0,42.31,0,64.23,0
			c-2.39,3.64-5.31,4.87-8.58,5.07c-4.64,0.28-9.3,0.2-13.96,0.26C987.97,166.3,986.17,166.28,983.56,166.28z"/>
		<path class="st0" d="M176.01,181.81c2.67,0.55,6.33,0.95,9.76,2.06c6.78,2.19,11.21,6.98,13.31,13.74
			c2.36,7.58,1.74,15.2-1.22,22.41c-5.07,12.37-15.07,16.86-28.02,16.21c-2.31-0.11-4.65-0.41-6.88-1.01
			c-10.49-2.79-15.64-10.17-16.83-20.48c-1.72-14.91,4.81-28,20.48-31.82C169.33,182.26,172.21,182.24,176.01,181.81z M190.4,210.33
			c-0.07-6.55-1.31-12.56-5.36-17.87c-3.91-5.12-9.14-7.14-15.32-6.22c-6.35,0.94-10.4,4.9-12.2,11
			c-1.92,6.49-2.05,13.15-0.29,19.62c0.93,3.41,2.63,6.86,4.82,9.64c4.05,5.15,9.93,6.57,16.17,5.41c5.84-1.09,9.06-5.3,10.38-10.85
			C189.44,217.53,189.82,213.91,190.4,210.33z"/>
		<path class="st0" d="M223.53,234.68c-3.9,0-7.67,0-11.47,0c1.41-16.83,1.46-33.43-0.27-50.24c2.75-0.31,6.16-0.69,9.9-1.11
			c0.4,2.22,0.74,4.12,1.15,6.44c1.1-0.92,2-1.61,2.82-2.38c5.47-5.11,12.15-5.88,19.11-4.96c3.85,0.51,6.8,2.78,7.94,6.66
			c0.78,2.68,1.52,5.47,1.65,8.24c0.42,8.78,0.5,17.57,0.79,26.35c0.12,3.59,0.42,7.17,0.65,10.97c-2.91,0-6.2,0-10.15,0
			c0-2.77,0-5.51,0-8.25c0.02-9.29,0.22-18.58,0-27.86c-0.19-7.8-3.51-10.56-11.45-10.27c-7.6,0.28-11.23,3.23-11.57,10.79
			c-0.46,10.1-0.25,20.23-0.2,30.34C222.45,231.12,223.13,232.83,223.53,234.68z"/>
		<path class="st0" d="M1078.94,183.32c3.27-0.39,6.69-0.79,10.79-1.28c0,2.56,0.04,4.64-0.01,6.73
			c-0.23,10.76-0.64,21.51-0.64,32.27c0,4.54,0.85,9.08,1.35,13.9c-2.49,0.26-5.58,0.57-9.04,0.93c-0.24-2.87-0.45-5.45-0.71-8.62
			c-1.17,1.04-2.05,1.69-2.77,2.48c-5.46,5.96-12.25,7.62-19.95,6.04c-5.73-1.17-9.98-5.7-10.9-11.56c-0.48-3.1-0.81-6.26-0.84-9.39
			c-0.08-8.46,0.09-16.92,0.06-25.39c-0.01-1.92-0.39-3.85-0.66-6.33c2.61-0.34,5.5-0.71,8.46-1.1c2.2,3.71,1.28,7.4,1.28,10.91
			c0,7.62-0.35,15.25-0.26,22.87c0.03,2.42,0.9,4.85,1.55,7.24c1.1,4.07,4.12,5.87,8.08,6.24c1.81,0.17,3.66,0.09,5.47-0.09
			c4.01-0.4,6.95-2.49,8.12-6.34c0.91-2.98,1.61-6.13,1.71-9.22c0.25-7.46,0.2-14.94,0.05-22.4
			C1080.03,188.65,1079.36,186.1,1078.94,183.32z"/>
		<path class="st0" d="M783.44,234.86c-3.19,0.31-6.29,0.61-9.89,0.96c-0.62-2.47-1.2-4.8-1.93-7.73c-1.06,1.01-2,1.76-2.78,2.66
			c-6.3,7.29-17.75,6.41-23.39,2.97c-7.77-4.74-8.3-13.16-0.66-18.12c4.56-2.95,9.76-4.92,14.69-7.28c2.69-1.29,5.48-2.41,8.14-3.74
			c4.32-2.17,4.72-6.14,4.33-10.26c-0.4-4.14-2.48-7.11-6.71-8.33c-5.78-1.66-10.28,0.15-13.42,5.3c-0.85,1.39-1.94,2.71-3.16,3.8
			c-1.62,1.44-4.4,1.36-5.98,0.11c-1.59-1.25-2.08-3.84-0.67-5.84c1.01-1.43,2.41-2.96,3.98-3.57c3.69-1.42,7.52-2.77,11.41-3.29
			c4.25-0.57,8.65-0.47,12.95-0.14c6.79,0.52,11.19,3.78,10.72,11.51c-0.28,4.64-0.49,9.28-0.71,13.92
			C780.02,215.19,779.87,226.15,783.44,234.86z M771.27,207.17c-6.42,2.48-12.44,4.31-17.59,7.96c-1.62,1.15-2.83,3.24-3.59,5.15
			c-1.14,2.87-0.01,5.57,2.46,7.4c7.09,5.25,17.55,1.1,18.64-7.62C771.67,216.18,771.27,212.18,771.27,207.17z"/>
		<path class="st0" d="M796.18,184.46c2.93-0.34,6.04-0.71,9.66-1.14c0.48,2.08,0.95,4.07,1.46,6.31c1.46-1.17,2.74-2.17,3.99-3.22
			c5.3-4.41,11.56-4.89,17.94-3.95c5.02,0.74,7.91,4.26,8.62,9.08c0.77,5.23,1.08,10.53,1.3,15.82c0.21,4.97-0.1,9.96,0.06,14.93
			c0.13,4.08,0.62,8.16,0.96,12.41c-2.78,0-6.06,0-9.88,0c-0.1-1.9-0.29-3.65-0.28-5.4c0.06-9.62,0.16-19.24,0.24-28.86
			c0.01-0.83-0.04-1.66-0.12-2.49c-0.67-7-3.99-9.98-11.12-9.75c-6.93,0.22-11.77,2.93-12.06,11.49c-0.26,7.95-0.68,15.9-0.69,23.85
			c0,3.6,0.81,7.2,1.29,11.06c-3.69,0-7.6,0-11.21,0C797.89,218.01,797.95,201.43,796.18,184.46z"/>
		<path class="st0" d="M367.4,199.44c-4.35,2.47-9.14,1.9-13.68,2.14c-6.81,0.36-13.64,0.09-20.44,0.09
			c-3.17,8.12-0.74,18.49,5.5,23.63c7.13,5.88,16.59,5.24,28.37-2.04c-0.05,3.21-1.5,5.46-3.7,7.35c-4.34,3.73-9.51,5.49-15.12,5.7
			c-10.4,0.39-19.42-3.03-23.99-13.43c-3.99-9.09-3.95-18.43,0.28-27.47c3.14-6.71,8.65-10.83,15.89-12.47
			c5.77-1.31,11.57-1.34,17.21,0.69C364.88,186.21,368.55,192.03,367.4,199.44z M333.91,197.83c6.55,1.23,13.15,0.72,19.69,0.3
			c3.62-0.23,4.96-3.16,3.32-6.48c-1.65-3.35-4.35-5.32-8.12-5.72C341.02,185.11,335.27,189.64,333.91,197.83z"/>
		<path class="st0" d="M728.59,234.76c-14.34,0-28.11,0-42.1,0c2.95-12.37,2.12-24.64,2.08-36.84c-0.04-12.21,0.97-24.52-2.12-36.96
			c5.1,0,10.11,0,14.64,0c-0.6,7.1-1.65,14.14-1.7,21.19c-0.1,13.59,0.35,27.18,0.61,40.77c0.05,2.45,0.24,4.9,0.4,7.85
			c10.9,0.49,21.42,1.5,31.04-6.88C730.33,228.16,729.47,231.42,728.59,234.76z"/>
		<path class="st0" d="M312.94,198.92c-1.52,1.88-3.66,2.08-5.86,2.13c-8.98,0.19-17.95,0.39-26.93,0.59
			c-0.48,0.01-0.96,0.04-1.39,0.06c-3.54,6.88-1.01,17.97,5.31,23.63c6.41,5.73,17.12,5.1,28.04-1.84c0.68,2.72-0.81,4.4-2.33,6.01
			c-4.22,4.48-9.64,6.52-15.61,6.82c-12.27,0.63-22.21-4.51-25.92-17.14c-2.11-7.18-1.68-14.49,0.7-21.56
			c1.82-5.39,5.58-9.35,10.48-12.22c8.29-4.86,21.27-4.43,28.43,0.94C312.12,189.54,313.66,193.37,312.94,198.92z M302.12,197.21
			c1.38-6.31-1.7-10.48-7.7-11.27c-7.96-1.06-14.31,4-14.95,12.2C287.14,198.33,294.81,199.31,302.12,197.21z"/>
		<path class="st0" d="M600.01,198.53c-1.84,2.53-4.39,2.53-6.87,2.61c-9.12,0.28-18.23,0.53-27.49,0.79
			c-3.48,5.91-1.14,17.37,4.75,22.91c5.28,4.97,17.15,7.37,28.59-1.34c0.72,3.11-0.92,5.23-2.95,6.87
			c-8.19,6.65-17.54,7.8-27.16,4.19c-8.85-3.33-13.33-10.38-14.54-19.71c-0.7-5.35-0.51-10.58,1.06-15.69
			c2.58-8.41,8.21-13.97,16.79-16.02c7.77-1.85,15.53-1.99,22.39,3.13C598.73,189.36,600.9,193.39,600.01,198.53z M565.9,198.24
			c6.72,0,12.99,0.18,19.24-0.06c4.38-0.17,5.9-3.37,3.72-7.32c-1.64-2.98-4.38-4.43-7.65-4.89
			C573.66,184.89,567.74,189.43,565.9,198.24z"/>
		<path class="st0" d="M1101.98,223.98c3.92,7.36,10.52,9.15,18.19,8.13c2.04-0.27,4.19-1.24,5.85-2.49
			c4.93-3.7,4.97-10.07-0.02-14.01c-2.71-2.14-5.97-3.57-8.97-5.35c-2.85-1.7-5.84-3.22-8.47-5.21c-3.95-2.99-6.11-7.01-5.2-12.13
			c0.92-5.18,4.57-7.97,9.23-9.49c5.98-1.95,12.18-1.38,18.31-0.85c1.78,0.15,3.53,0.71,5.6,1.15c-0.25,2.7-0.48,5.24-0.76,8.31
			c-1.32-1.24-2.22-2.2-3.23-3.01c-4.39-3.55-9.47-4.09-14.6-2.49c-5.28,1.64-6.77,6.89-3.05,11.03c2.39,2.65,5.53,4.71,8.55,6.71
			c3.31,2.2,6.98,3.87,10.3,6.06c7.53,4.97,8.25,13.06,1.74,19.35c-5.63,5.45-12.73,6.94-20.24,6.74c-3.28-0.09-6.59-0.76-9.8-1.51
			c-1.67-0.39-3.16-1.53-4.77-2.35c0.19-3.06,0.34-5.69,0.53-8.31C1101.18,224.16,1101.61,224.1,1101.98,223.98z"/>
		<path class="st0" d="M136.42,183.28c0,2.22,0.05,3.86-0.02,5.5c-0.05,1.14-0.25,2.27-0.42,3.72c-0.62-0.28-1.19-0.35-1.33-0.63
			c-3.97-7.78-16.9-7.64-23.21-1.51c-5.67,5.5-7.49,12.32-7.25,19.92c0.12,3.69,0.7,7.25,2.58,10.53
			c6.73,11.74,20.08,10.95,27.88,6.41c1.14-0.66,2.17-1.52,4.22-2.98c-0.81,2.38-0.93,4.25-1.92,5.33c-1.76,1.91-3.8,3.93-6.14,4.87
			c-8.98,3.61-22.06,2.49-29.68-5.39c-11.98-12.37-9.21-33.88,5.71-42.6C116.09,181.05,125.88,181.54,136.42,183.28z"/>
		<path class="st0" d="M539.72,183.56c3.92,0,7.48,0,11.33,0c-9.85,16.41-15.85,34.15-22.77,51.71c-2.39,0-4.66,0-7.34,0
			c-6.37-17.23-11.09-35.42-20.71-51.78c3.1-0.31,6.2-0.61,9.42-0.93c2.46,1.99,3.54,4.79,4.51,7.58
			c3.75,10.79,7.38,21.62,11.07,32.43c0.42,1.24,0.89,2.47,1.39,3.83C531.97,218.79,539.65,193.77,539.72,183.56z"/>
		<path class="st0" d="M1147.09,184.07c2.35-0.43,4.13-0.75,6.05-1.1c0.3-4.67,0.6-9.25,0.92-14.14c2.71-0.77,5.37-1.54,8.39-2.4
			c0,5.65,0,11.03,0,16.86c3.84,0,7.43,0,11.57,0c-2.69,5.18-7.43,2.84-11.3,4.39c-0.22,1.82-0.66,3.9-0.7,5.99
			c-0.16,8.62-0.25,17.25-0.26,25.87c0,1.8,0.19,3.66,0.69,5.38c1.27,4.37,4.62,5.93,8.91,4.28c1.36-0.52,2.64-1.23,4.78-2.24
			c-0.68,2.16-0.73,4.04-1.69,5.05c-4.02,4.24-9.23,5.05-14.68,3.79c-4.11-0.95-6.71-4.91-6.79-10.48
			c-0.14-10.78,0.03-21.56,0.07-32.33c0.01-1.64,0-3.29,0-5.2c-2-0.37-3.74-0.68-5.77-1.06
			C1147.22,185.97,1147.17,185.21,1147.09,184.07z"/>
		<path class="st0" d="M513.37,98.78c-10.72,4.01-21.66,7.87-33.18,9.55c-6.71,0.98-13.46,1.76-20.21,2.39
			c-11.06,1.03-21.76-1.08-32.29-4.23c-4.58-1.37-9.12-2.87-14.73-4.64c2.53-0.58,5.89-1.21,7.33-1.28
			c9.26-0.44,16.59-0.92,25.85-0.96c5.93-0.03,11.88,0.66,17.8,1.22c9.59,0.91,19.17,0.9,28.74-0.01
			C499.59,100.17,506.48,99.46,513.37,98.78z"/>
		<path class="st0" d="M1005.13,184.4c3.47-0.47,6.51-0.88,9.77-1.32c0.55,2.28,0.95,3.97,1.46,6.07c1.41-1.36,2.56-2.5,3.76-3.59
			c3.46-3.15,7.6-3.96,12.06-3.21c3.56,0.6,4.21,1.94,3.1,6.69c-2.01,0.15-4.27,0.65-6.46,0.42c-9.38-0.99-12.31,1.08-12.7,10.45
			c-0.37,9.09-0.15,18.22,0.01,27.32c0.04,2.43,0.82,4.84,1.29,7.47c-3.92,0-7.86,0-12.07,0c2.86-8.35,1.62-16.8,1.69-25.15
			C1007.11,201.31,1007.9,192.98,1005.13,184.4z"/>
		<path class="st0" d="M611.35,184.4c3.42-0.49,6.33-0.9,9.54-1.35c0.62,2.11,1.12,3.81,1.74,5.91c1.21-1.08,2.4-2.06,3.49-3.14
			c3.36-3.34,7.49-4.08,11.97-3.48c3.63,0.49,4.3,1.64,3.65,5.89c-1.91,1.67-4.17,1.56-6.55,1.3c-9.68-1.09-12.57,1.17-12.88,10.78
			c-0.29,8.78-0.17,17.58-0.01,26.37c0.05,2.6,0.85,5.18,1.35,7.98c-3.76,0-7.7,0-11.98,0c2.66-8.3,1.63-16.73,1.68-25.09
			C613.38,201.31,613.98,192.98,611.35,184.4z"/>
		<path class="st0" d="M492.45,234.66c-3.73,0-7.67,0-11.2,0c1.91-17.03,1.87-33.83-0.12-51.08c3.04-0.41,6.55-0.88,10.15-1.36
			c0,4.97,0,9.68,0,14.39c0,9.3-0.1,18.59,0.05,27.88C491.38,227.76,492.03,231.02,492.45,234.66z"/>
		<path class="st0" d="M799.28,33.89c6.11-1.16,9.63,5.91,11.91,11.15c-3.88,1.63-7.74,3.26-12.26,5.17
			c-0.62-4.22-1.53-7.48-1.64-11.14C797.28,38.77,797.31,34.26,799.28,33.89z"/>
		<path class="st0" d="M869.26,89.6c0.62-1.13,1.24-2.27,2.07-3.79c-3.32-0.29-4.68-2.14-4.98-5.14c-0.12-1.24-1.02-2.4-1.63-3.74
			c2.31-0.99,3.21,1.6,5.02,2.22c0.45-0.38,0.94-0.79,1.59-1.35c-3.34-4.16-8.38-6.5-10.67-11.41c3.52,2.64,7.05,5.26,10.55,7.92
			c5.81,4.4,6,9.57,0.54,14.5c-0.59,0.53-1.3,0.93-1.96,1.38C869.62,90,869.44,89.8,869.26,89.6z"/>
		<path class="st0" d="M493.41,169.87c-3.43,1.88-6.3,3.45-9.36,5.13c-1.78-2.48-3.4-4.74-5.36-7.49c3.08-1.79,5.99-3.48,9.38-5.45
			C489.81,164.61,491.45,167.01,493.41,169.87z"/>
		<path class="st0" d="M818.96,78.98c8.03-3.7,31.34-3.42,36.66,3.06c-6.11-1.22-12.08-2.95-18.16-3.46
			C831.43,78.08,825.29,78.79,818.96,78.98z"/>
		<path class="st0" d="M851.51,63.27c-2.44-0.59-4.7-1.14-6.54-1.59c-0.93-2.6-1.62-4.51-2.3-6.41
			C848.2,55.53,849.83,56.94,851.51,63.27z"/>
		<path class="st0" d="M856.21,89.27c-2.74,0.59-5.49,1.11-8.21,1.77c-2.48,0.61-4.92,1.36-7.48,1.68
			C845.46,90.2,850.69,88.83,856.21,89.27z"/>
	</g>
</g>
</svg>
